<svg xmlns="http://www.w3.org/2000/svg" xmlns:xlink="http://www.w3.org/1999/xlink" width="2997" height="2153" xml:space="preserve">  <defs>    <clipPath id="clip0">      <rect x="-4780" y="-170" width="2997" height="2153"></rect>    </clipPath>  </defs>  <g clip-path="url(#clip0)" transform="translate(4780 170)">    <path d="M-1999.51 1784.28C-1999.63 1784.34-2000.97 1784.59-2002.66 1784.8L-2004.67 1784.94-2003.73 1784.8C-2000.51 1784.32-1999.4 1784.21-1999.51 1784.28ZM-4780-170-1783-170-1783 1500.15-1785.01 1499.12C-1792.06 1498.14-1797.85 1497.99-1802.65 1498.53-1836.28 1502.28-1821.3 1539.47-1846.74 1558.48-1855.26 1564.85-1861.81 1575.66-1872.3 1577.58-1894.7 1581.68-1917.84 1576.29-1940.6 1575.64-1946.63 1582.36-1953.55 1588.38-1958.69 1595.78-1963.2 1602.27-1963.52 1611.54-1969.31 1616.95-1975.9 1623.12-1986.58 1623.24-1993.82 1628.65-2003.86 1636.15-2011.56 1646.31-2020.43 1655.15-2014.7 1668.52-2012.08 1683.68-2003.25 1695.28-1994.42 1706.88-1980.26 1713.34-1969.03 1722.68-1962.08 1728.45-1955.48 1734.63-1948.71 1740.6-1947.26 1748.35-1938.59 1758.44-1944.38 1763.85-1954.22 1773.06-1970.99 1769.19-1983.83 1773.47-2012.34 1782.96-2012.49 1785.08-2007.93 1785.18L-2004.67 1784.94-2010.24 1785.82C-2018.55 1787.17-2032.57 1789.59-2055.28 1793.74-2063.8 1800.11-2072.93 1805.73-2080.84 1812.84-2112.05 1840.89-2084.59 1827.54-2124.48 1852.07-2146.05 1865.33-2148.94 1863.75-2172.46 1868.05-2181.33 1876.89-2189.03 1887.05-2199.07 1894.55-2231.79 1919-2266.06 1904.2-2306.82 1902.23-2312.85 1908.94-2317.21 1917.63-2324.91 1922.37-2334.47 1928.25-2346.09 1936.12-2356.9 1933.02-2367.15 1930.09-2369 1915.53-2376.17 1907.7-2382.26 1901.04-2388.09 1893.15-2396.49 1889.78-2417.61 1881.32-2440.63 1878.62-2462.7 1873.03-2469.82 1869.53-2478.13 1867.75-2484.07 1862.52-2492.04 1855.49-2493.04 1839.95-2503.34 1837.19-2516.42 1833.69-2529.58 1843.89-2542.8 1846.81-2550.56 1848.52-2558.44 1849.67-2566.26 1851.1-2575.48 1862.4-2581.84 1876.77-2593.92 1885-2618.03 1901.44-2677.98 1930.09-2714.39 1928.66L-2790.16 1925.69C-2855.03 1974.16-2773.22 1921.07-2929.9 1944.02-2938.87 1945.34-2940.19 1959.57-2947.99 1964.16-2954.83 1968.18-2963.91 1965.94-2971.45 1968.45-3037.01 1990.29-2935.97 1982.5-3071.74 1977.17-3091.31 1971.93-3111.67 1968.99-3130.47 1961.46-3150.39 1953.48-3166.13 1935.57-3187.1 1930.94-3228.91 1921.72-3272.49 1924.12-3315.18 1920.7-3323.7 1927.07-3331.28 1934.91-3340.74 1939.8-3375.03 1957.53-3467.11 1963.54-3481.53 1965.54-3606.12 1932.22-3494.29 1982.3-3539.36 1889.57-3543.29 1881.47-3555 1899.39-3563.87 1901.26-3584.15 1905.53-3605.12 1905.6-3625.74 1907.76-3632.87 1904.26-3641.65 1902.98-3647.11 1897.25-3653.34 1890.71-3650.33 1875.85-3658.92 1872.96-3704.23 1857.71-3752.87 1854.88-3799.84 1845.84-3806.62 1839.86-3811.18 1829.16-3820.17 1827.91-3915.97 1814.61-3935 1818.1-4002.65 1825.22-4014.4 1818.55-4028.09 1814.46-4037.91 1805.22-4079.59 1766.01-3992.35 1773.22-4105.31 1743.01-4183.05 1722.22-4264.02 1715.94-4343.37 1702.4-4329.52 1694.25-4316.04 1685.47-4301.82 1677.97-4285.82 1669.52-4267.28 1665.4-4252.8 1654.58-4246.45 1649.84-4235.63 1637.88-4242.18 1633.41-4252.75 1626.21-4267.82 1634.52-4280.59 1635.63-4401.55 1646.14-4293.12 1639.29-4380.88 1644.34-4389.4 1650.71-4395.77 1663.86-4406.44 1663.44-4487.2 1660.27-4513.75 1651.72-4567.69 1618.4-4577.23 1612.5-4586.22 1605.76-4595.48 1599.44-4630.7 1597.06-4665.84 1592.22-4701.14 1592.31-4719.45 1592.36-4737.27 1600.98-4755.55 1599.85-4761.74 1599.47-4768.94 1597.75-4776.58 1595.23L-4780 1593.87Z" fill="#A3B8C3" fill-rule="evenodd"></path>  </g></svg>