<svg xmlns="http://www.w3.org/2000/svg" xmlns:xlink="http://www.w3.org/1999/xlink" width="1381" height="1587"><defs><clipPath id="clip0"><rect x="3113" y="371" width="1381" height="1587"></rect></clipPath></defs><g clip-path="url(#clip0)" transform="translate(-3113 -371)"><path d="M4475.85 713.974C4475.85 713.974 4451.68 684.269 4451.68 684.269 4431.27 660.719 4390.45 610.675 4370.58 587.928 4364.13 582.041 4353.66 584.182 4347.75 587.928 4300.49 613.352 4244.63 619.774 4191.99 610.14 4047.25 582.041 3926.13 485.165 3823.01 384.543L3816.02 377.317C3812.8 374.373 3808.24 372.5 3803.4 372.5 3798.84 372.5 3794.27 374.373 3791.05 377.317 3791.05 377.317 3784.07 384.543 3784.07 384.543 3770.64 397.656 3756.41 411.572 3742.44 424.149 3624.28 530.124 3431.19 668.48 3267.65 591.943 3267.65 591.943 3259.32 587.928 3259.32 587.928 3253.41 583.914 3242.67 582.309 3236.5 587.928 3231.12 592.478 3209.91 620.31 3205.07 625.394L3155.39 684.269 3131.22 713.974C3125.85 721.2 3119.68 726.284 3115.92 734.58 3113.5 741.271 3115.38 749.567 3120.21 754.116 3175 823.963 3205.88 910.937 3227.1 996.305 3266.04 1169.72 3249.12 1354.37 3197.02 1523.5 3192.72 1538.22 3182.25 1570.07 3178.49 1584.25 3176.88 1591.48 3180.37 1598.43 3184.67 1604.32 3297.72 1760.61 3458.32 1892.01 3648.99 1938.84 3699.47 1951.15 3751.84 1956.5 3803.4 1955.43 3855.23 1956.5 3907.6 1951.15 3958.09 1938.84 4148.76 1892.01 4309.35 1760.61 4422.41 1604.32 4426.97 1598.7 4429.93 1591.48 4428.58 1584.25 4425.09 1570.6 4413.81 1536.62 4410.06 1523.5 4336.2 1283.72 4330.83 1004.87 4464.84 784.891 4471.82 774.454 4478 763.215 4486.86 754.116 4490.08 751.172 4491.96 746.355 4492.23 741.806 4492.5 730.031 4482.03 722.538 4475.85 713.974Z" stroke="#231915" stroke-width="2.86476" stroke-miterlimit="8" fill-rule="evenodd"></path></g></svg>